<?xml version="1.0" standalone="no"?>
<!DOCTYPE svg PUBLIC "-//W3C//DTD SVG 20010904//EN"
 "http://www.w3.org/TR/2001/REC-SVG-20010904/DTD/svg10.dtd">
<svg version="1.0" xmlns="http://www.w3.org/2000/svg"
 width="350.000000pt" height="100.000000pt" viewBox="0 0 350.000000 100.000000"
 preserveAspectRatio="xMidYMid meet">

<g transform="translate(0.000000,100.000000) scale(0.100000,-0.100000)"
fill="#000000" stroke="none">
<path d="M665 704 c-71 -58 -151 -121 -177 -141 -27 -19 -48 -43 -48 -53 0
-12 59 -64 163 -146 89 -71 164 -131 167 -135 3 -3 15 -11 27 -17 17 -10 25
-9 37 4 9 8 16 21 16 29 0 11 -112 105 -294 247 -11 9 -19 18 -16 21 3 2 71
57 152 121 81 64 150 121 153 127 12 18 -6 49 -28 49 -12 -1 -79 -47 -152
-106z m165 71 c0 -17 -2 -20 -169 -150 -77 -60 -141 -113 -141 -116 0 -3 30
-30 67 -59 38 -30 75 -60 83 -67 8 -6 48 -37 88 -68 45 -36 72 -63 72 -76 0
-10 -5 -19 -10 -19 -11 0 -55 29 -96 63 -12 10 -75 60 -140 111 -69 53 -120
101 -121 112 -3 18 93 99 300 256 48 37 67 41 67 13z"/>
<path d="M2792 798 c-7 -7 -12 -18 -12 -25 0 -11 177 -159 299 -250 20 -15 20
-14 -156 -151 -72 -56 -135 -107 -138 -112 -11 -18 6 -50 26 -50 11 0 48 21
81 48 33 26 84 65 113 87 178 137 189 147 181 171 -3 10 -49 53 -102 94 -52
41 -131 103 -174 138 -81 64 -97 71 -118 50z m106 -58 c42 -34 84 -66 92 -73
8 -7 44 -35 79 -62 83 -64 101 -82 101 -99 0 -15 -329 -278 -354 -284 -7 -2
-16 4 -19 13 -5 11 22 37 91 92 193 152 222 177 220 185 -2 4 -43 39 -93 78
-49 38 -94 73 -100 77 -89 70 -124 107 -114 119 6 8 13 14 15 14 3 0 39 -27
82 -60z"/>
<path d="M2597 653 c-11 -3 -16 -11 -13 -18 6 -16 -41 -184 -55 -200 -18 -19
-8 -25 41 -25 48 0 50 1 51 28 1 38 23 95 39 100 9 3 11 -2 6 -22 -3 -14 -9
-37 -12 -51 -8 -30 10 -55 40 -55 27 0 66 29 50 36 -9 4 -8 18 1 55 8 28 11
57 8 65 -7 20 -47 28 -71 15 -20 -10 -21 -8 -19 31 2 39 0 43 -23 45 -14 0
-33 -1 -43 -4z"/>
<path d="M908 616 c-16 -36 -4 -60 22 -46 11 6 20 15 20 20 0 6 7 10 15 10 8
0 15 -3 15 -6 0 -18 -34 -132 -46 -156 l-15 -28 56 0 c55 0 55 0 55 31 0 17 7
56 16 87 25 93 23 90 49 57 28 -34 41 -28 51 23 l7 32 -117 0 c-114 0 -117 -1
-128 -24z"/>
<path d="M1613 620 c6 -21 -25 -151 -43 -182 -14 -25 -13 -28 14 -28 20 0 24
6 30 48 11 79 22 83 41 14 11 -37 23 -62 31 -62 8 0 35 27 61 60 25 33 48 58
51 56 5 -6 -18 -78 -29 -90 -18 -20 -7 -26 47 -26 48 0 55 2 50 18 -5 15 28
145 49 195 6 14 1 17 -33 17 -38 0 -44 -4 -92 -65 -29 -36 -54 -64 -56 -62 -2
2 -12 30 -22 63 l-18 59 -43 3 c-40 3 -43 2 -38 -18z"/>
<path d="M2238 610 c-14 -11 -33 -20 -42 -20 -17 0 -22 -25 -7 -35 6 -3 3 -29
-7 -61 -15 -54 -15 -57 3 -70 23 -17 46 -18 80 -2 28 12 33 28 10 28 -18 0
-18 8 -4 65 7 28 17 45 30 48 22 6 26 27 5 27 -8 0 -13 8 -12 17 2 25 -26 27
-56 3z"/>
<path d="M1204 579 c-55 -27 -71 -114 -28 -148 39 -30 102 -24 126 13 14 20 8
25 -25 19 -23 -3 -37 0 -46 11 -12 14 -10 16 17 16 51 0 82 19 82 51 0 18 -7
32 -19 39 -24 13 -79 12 -107 -1z m56 -33 c0 -7 -7 -19 -15 -26 -16 -13 -20
-3 -9 24 8 20 24 21 24 2z"/>
<path d="M1424 580 c-33 -13 -64 -59 -64 -96 0 -66 88 -96 141 -48 28 25 23
33 -16 27 -30 -5 -36 -2 -46 20 -10 22 -9 31 5 52 17 26 36 26 36 -1 0 -20 49
-18 57 3 14 37 -59 65 -113 43z"/>
<path d="M1992 579 c-29 -11 -26 -43 5 -47 14 -2 26 4 33 19 14 26 31 9 22
-23 -4 -15 -10 -18 -30 -13 -66 16 -119 -33 -87 -81 16 -26 44 -30 75 -14 14
7 25 7 39 -2 14 -8 26 -9 42 -2 19 9 23 19 26 80 3 68 2 71 -22 82 -30 14 -71
14 -103 1z m38 -103 c0 -8 -4 -17 -9 -21 -12 -7 -24 12 -16 25 9 15 25 12 25
-4z"/>
<path d="M2390 572 c-45 -22 -67 -79 -48 -120 18 -37 69 -50 114 -29 41 20 48
51 9 41 -47 -12 -76 46 -39 77 13 11 17 10 25 -4 6 -9 21 -17 34 -17 20 0 25
5 25 25 0 45 -58 58 -120 27z"/>
</g>
</svg>
